<svg xmlns="http://www.w3.org/2000/svg" viewBox="0 0 280 60" fill="none">
    <g transform="translate(4, 8)">
        <rect x="0" y="0" width="48" height="16" rx="3" fill="none" stroke="white" stroke-width="1.8" stroke-linejoin="round"/>
        <path d="M2,8 Q24,0 46,8" fill="none" stroke="white" stroke-width="1" stroke-opacity="0.45"/>
        <rect x="0" y="14" width="48" height="28" rx="2" fill="none" stroke="white" stroke-width="1.8" stroke-linejoin="round"/>
        <line x1="16" y1="14" x2="16" y2="42" stroke="white" stroke-width="0.9" stroke-opacity="0.3"/>
        <line x1="32" y1="14" x2="32" y2="42" stroke="white" stroke-width="0.9" stroke-opacity="0.3"/>
        <line x1="0" y1="28" x2="48" y2="28" stroke="white" stroke-width="0.9" stroke-opacity="0.3"/>
        <rect x="19" y="11" width="10" height="6" rx="1.5" fill="none" stroke="white" stroke-width="1.5" />
        <circle cx="24" cy="14" r="1.2" fill="white" />
        <circle cx="8" cy="2.5" r="1.1" fill="white" opacity="0.5" />
        <circle cx="40" cy="2.5" r="1.1" fill="white" opacity="0.5" />
        <circle cx="3" cy="17" r="1.1" fill="white" opacity="0.5" />
        <circle cx="45" cy="17" r="1.1" fill="white" opacity="0.5" />
        <circle cx="3" cy="39" r="1.1" fill="white" opacity="0.5" />
        <circle cx="45" cy="39" r="1.1" fill="white" opacity="0.5" />
    </g>

    <text
        x="68"
        y="34"
        font-family="Georgia, 'Times New Roman', serif"
        font-size="26"
        fill="white"
        letter-spacing="2"
    >HOARD</text>

    <text
        x="69"
        y="48"
        font-family="'Helvetica Neue', Helvetica, Arial, sans-serif"
        font-size="8.5"
        font-weight="400"
        fill="white"
        opacity="0.55"
        letter-spacing="3.5"
    >INVENTORY</text>

    <line x1="60" y1="12" x2="60" y2="50" stroke="white" stroke-width="1" stroke-opacity="0.2"/>

</svg>